<svg viewBox="0 0 34 34" fill="none" xmlns="http://www.w3.org/2000/svg">
<path d="M32.6883 3.52151C33.2985 2.91132 33.2985 1.922 32.6883 1.3118C32.0781 0.701608 31.0888 0.701608 30.4786 1.3118L17.0001 14.7903L3.5216 1.31181C2.91141 0.701614 1.92209 0.701614 1.31189 1.31181C0.701699 1.922 0.701699 2.91132 1.31189 3.52152L14.7904 17L1.31195 30.4785C0.701756 31.0887 0.701756 32.078 1.31195 32.6882C1.92214 33.2984 2.91146 33.2984 3.52166 32.6882L17.0001 19.2097L30.4786 32.6882C31.0888 33.2984 32.0781 33.2984 32.6883 32.6882C33.2985 32.078 33.2985 31.0887 32.6883 30.4785L19.2098 17L32.6883 3.52151Z" fill="currentColor"/>
</svg>
