<svg viewBox="0 0 15 18" fill="none" xmlns="http://www.w3.org/2000/svg">
<path fill-rule="evenodd" clip-rule="evenodd" d="M10.9533 1.3255C10.1753 0.876237 9.52642 0.501606 8.97134 0.273468C8.38545 0.0326677 7.80175 -0.089937 7.17957 0.0767765C6.55739 0.24349 6.11319 0.641518 5.7262 1.143C5.35955 1.61811 4.98497 2.26697 4.53575 3.04509L0.660135 9.75775C0.399572 10.2082 0.186727 10.5762 0.079146 10.9713C0.0637773 11.0277 0.0505569 11.0847 0.0396523 11.1426C-0.0475824 11.6056 0.0236035 12.0704 0.113633 12.6583L0.137892 12.8172C0.304077 13.9086 0.441058 14.8081 0.647657 15.4903C0.863728 16.2037 1.19588 16.8212 1.84916 17.1984C2.50243 17.5756 3.20329 17.5545 3.92918 17.3849C4.62324 17.2227 5.47078 16.8916 6.49901 16.4898L6.64875 16.4314C7.20288 16.2154 7.64103 16.0446 7.99839 15.7376C8.35575 15.4305 8.59053 15.0231 8.88747 14.5078L12.763 7.7951C13.2123 7.01701 13.5869 6.36817 13.815 5.81309C14.0558 5.2272 14.1784 4.6435 14.0117 4.02132C13.845 3.39914 13.447 2.95494 12.9455 2.56795C12.4704 2.2013 11.8215 1.82672 11.0434 1.3775L10.9533 1.3255ZM11.063 7.73964L5.43379 4.48964L2.01035 10.4192C1.63739 11.0652 1.54767 11.2401 1.51372 11.4203C1.47976 11.6005 1.49968 11.7961 1.61199 12.5336C1.78923 13.6973 1.91166 14.4889 2.08326 15.0555C2.24902 15.6028 2.41996 15.7959 2.59915 15.8994C2.77835 16.0028 3.03104 16.0543 3.58791 15.9242C4.16439 15.7895 4.91115 15.4998 6.00763 15.0714C6.7024 14.7999 6.88175 14.7194 7.02083 14.5999C7.15992 14.4804 7.26656 14.3152 7.63952 13.6692L11.063 7.73964ZM11.8114 6.4397C12.0924 5.94444 12.2951 5.56531 12.4276 5.24287C12.6046 4.81221 12.6105 4.58756 12.5628 4.40955C12.5151 4.23153 12.3977 4.03993 12.0291 3.75547C11.6432 3.45771 11.0832 3.13255 10.2484 2.65054C9.41352 2.16853 8.85192 1.84613 8.40112 1.66086C7.97046 1.48386 7.74582 1.47797 7.5678 1.52567C7.38978 1.57336 7.19818 1.69079 6.91372 2.05941C6.70074 2.33539 6.47374 2.70048 6.18536 3.19151L11.8114 6.4397Z" fill="currentColor"/>
</svg>
