<svg viewBox="0 0 24 24" fill="none" xmlns="http://www.w3.org/2000/svg">
<path fill-rule="evenodd" clip-rule="evenodd" d="M10.75 10.0362L19.25 7.48617V12.4779C18.6233 12.0071 17.8442 11.7281 17 11.7281C14.9289 11.7281 13.25 13.4071 13.25 15.4781C13.25 17.5492 14.9289 19.2281 17 19.2281C19.0711 19.2281 20.75 17.5492 20.75 15.4781V3.47815C20.75 1.97971 19.3001 0.908816 17.8679 1.34949L13.2867 2.75909L11.2445 3.34256C10.0639 3.67987 9.25 4.75893 9.25 5.98675V15.4779C8.62325 15.0071 7.8442 14.7281 7 14.7281C4.92893 14.7281 3.25 16.4071 3.25 18.4781C3.25 20.5492 4.92893 22.2281 7 22.2281C9.07107 22.2281 10.75 20.5492 10.75 18.4781V10.0362ZM18.309 2.78315C18.7766 2.63928 19.25 2.98892 19.25 3.47815V5.92012L10.75 8.47013V5.98675C10.75 5.42865 11.12 4.93817 11.6566 4.78485L13.7133 4.19721L18.309 2.78315ZM17 13.2281C18.2426 13.2281 19.25 14.2355 19.25 15.4781C19.25 16.7208 18.2426 17.7281 17 17.7281C15.7574 17.7281 14.75 16.7208 14.75 15.4781C14.75 14.2355 15.7574 13.2281 17 13.2281ZM7 16.2281C8.24264 16.2281 9.25 17.2355 9.25 18.4781C9.25 19.7208 8.24264 20.7281 7 20.7281C5.75736 20.7281 4.75 19.7208 4.75 18.4781C4.75 17.2355 5.75736 16.2281 7 16.2281Z" fill="currentColor"/>
</svg>
