<svg viewBox="0 0 18 22" fill="none" xmlns="http://www.w3.org/2000/svg">
<path fill-rule="evenodd" clip-rule="evenodd" d="M7.75 9.03617L16.25 6.48617V11.4779C15.6233 11.0071 14.8442 10.7281 14 10.7281C11.9289 10.7281 10.25 12.4071 10.25 14.4781C10.25 16.5492 11.9289 18.2281 14 18.2281C16.0711 18.2281 17.75 16.5492 17.75 14.4781V2.47815C17.75 0.97971 16.3001 -0.0911839 14.8679 0.349485L10.2867 1.75909L8.24452 2.34256C7.06394 2.67987 6.25 3.75893 6.25 4.98675V14.4779C5.62325 14.0071 4.8442 13.7281 4 13.7281C1.92893 13.7281 0.25 15.4071 0.25 17.4781C0.25 19.5492 1.92893 21.2281 4 21.2281C6.07107 21.2281 7.75 19.5492 7.75 17.4781V9.03617ZM15.309 1.78315C15.7766 1.63928 16.25 1.98892 16.25 2.47815V4.92012L7.75 7.47013V4.98675C7.75 4.42865 8.11997 3.93817 8.6566 3.78485L10.7133 3.19721L15.309 1.78315ZM14 12.2281C15.2426 12.2281 16.25 13.2355 16.25 14.4781C16.25 15.7208 15.2426 16.7281 14 16.7281C12.7574 16.7281 11.75 15.7208 11.75 14.4781C11.75 13.2355 12.7574 12.2281 14 12.2281ZM4 15.2281C5.24264 15.2281 6.25 16.2355 6.25 17.4781C6.25 18.7208 5.24264 19.7281 4 19.7281C2.75736 19.7281 1.75 18.7208 1.75 17.4781C1.75 16.2355 2.75736 15.2281 4 15.2281Z" fill="currentColor"/>
</svg>
