<svg viewBox="0 0 20 22" fill="none" xmlns="http://www.w3.org/2000/svg">
<path d="M14 6.25C14.4142 6.25 14.75 6.58579 14.75 7C14.75 7.41421 14.4142 7.75 14 7.75H6C5.58579 7.75 5.25 7.41421 5.25 7C5.25 6.58579 5.58579 6.25 6 6.25H14Z" fill="#FAFAFA"/>
<path d="M14 10.25C14.4142 10.25 14.75 10.5858 14.75 11C14.75 11.4142 14.4142 11.75 14 11.75H6C5.58579 11.75 5.25 11.4142 5.25 11C5.25 10.5858 5.58579 10.25 6 10.25H14Z" fill="#FAFAFA"/>
<path d="M9 14.25C9.41421 14.25 9.75 14.5858 9.75 15C9.75 15.4142 9.41421 15.75 9 15.75H6C5.58579 15.75 5.25 15.4142 5.25 15C5.25 14.5858 5.58579 14.25 6 14.25H9Z" fill="#FAFAFA"/>
<path fill-rule="evenodd" clip-rule="evenodd" d="M5.53648 0.373728C6.67861 0.249985 8.11821 0.249992 9.95475 0.25H10.0452C11.8818 0.249992 13.3214 0.249985 14.4635 0.373728C15.6291 0.500006 16.5734 0.762324 17.3798 1.34815C17.8679 1.70281 18.2972 2.13209 18.6518 2.62024C19.2377 3.42656 19.5 4.37094 19.6263 5.53648C19.75 6.67861 19.75 8.11821 19.75 9.95475V12.0452C19.75 13.8818 19.75 15.3214 19.6263 16.4635C19.5 17.6291 19.2377 18.5734 18.6518 19.3798C18.2972 19.8679 17.8679 20.2972 17.3798 20.6518C16.5734 21.2377 15.6291 21.5 14.4635 21.6263C13.3214 21.75 11.8818 21.75 10.0453 21.75H9.95473C8.11824 21.75 6.67859 21.75 5.53648 21.6263C4.37094 21.5 3.42656 21.2377 2.62024 20.6518C2.13209 20.2972 1.70281 19.8679 1.34815 19.3798C0.762323 18.5734 0.500006 17.6291 0.373728 16.4635C0.249987 15.3214 0.249992 13.8818 0.25 12.0453V9.95473C0.249992 8.11824 0.249987 6.67859 0.373728 5.53648C0.500006 4.37094 0.762323 3.42656 1.34815 2.62024C1.70281 2.13209 2.13209 1.70281 2.62024 1.34815C3.42656 0.762324 4.37094 0.500006 5.53648 0.373728ZM16.4981 2.56168C15.9901 2.19259 15.3399 1.97745 14.302 1.865C13.25 1.75103 11.8916 1.75 10 1.75C8.10843 1.75 6.74999 1.75103 5.69804 1.865C4.66013 1.97745 4.00992 2.19259 3.50191 2.56168C3.14111 2.82382 2.82381 3.14111 2.56168 3.50191C2.19259 4.00992 1.97745 4.66013 1.865 5.69804C1.75103 6.74999 1.75 8.10843 1.75 10V12C1.75 13.8916 1.75103 15.25 1.865 16.302C1.97745 17.3399 2.19259 17.9901 2.56168 18.4981C2.82381 18.8589 3.14111 19.1762 3.50191 19.4383C4.00992 19.8074 4.66013 20.0225 5.69804 20.135C6.74999 20.249 8.10843 20.25 10 20.25C11.8916 20.25 13.25 20.249 14.302 20.135C15.3399 20.0225 15.9901 19.8074 16.4981 19.4383C16.8589 19.1762 17.1762 18.8589 17.4383 18.4981C17.8074 17.9901 18.0225 17.3399 18.135 16.302C18.249 15.25 18.25 13.8916 18.25 12V10C18.25 8.10843 18.249 6.74999 18.135 5.69804C18.0225 4.66013 17.8074 4.00992 17.4383 3.50191C17.1762 3.14111 16.8589 2.82382 16.4981 2.56168Z" fill="#FAFAFA"/>
</svg>
