<svg viewBox="0 0 24 24" fill="none" xmlns="http://www.w3.org/2000/svg">
<path fill-rule="evenodd" clip-rule="evenodd" d="M20.8468 3.9356C19.5193 2.58176 18.0414 2.16294 16.6535 2.26454C15.3031 2.3634 14.087 2.94917 13.1988 3.5126C12.4984 3.95692 11.5014 3.95692 10.8009 3.5126C9.9127 2.94918 8.6966 2.36341 7.34624 2.26456C5.95834 2.16296 4.48046 2.58178 3.1529 3.9356C1.58562 5.53389 1.0939 7.50692 1.29136 9.50268C1.48653 11.4754 2.35186 13.4809 3.50598 15.2579C4.66317 17.0396 6.14136 18.6393 7.62433 19.8008C9.07467 20.9368 10.6527 21.75 11.9999 21.75C13.3471 21.75 14.9251 20.9368 16.3754 19.8008C17.8584 18.6393 19.3366 17.0396 20.4938 15.2579C21.6479 13.4809 22.5132 11.4754 22.7084 9.50268C22.9058 7.50691 22.4141 5.53389 20.8468 3.9356ZM14.0023 4.77925C14.7877 4.281 15.7599 3.83397 16.763 3.76054C17.7285 3.68986 18.7692 3.95926 19.7758 4.98582C20.9791 6.21285 21.3774 7.7199 21.2157 9.355C21.0516 11.0131 20.3084 12.7893 19.2358 14.4408C18.1663 16.0876 16.7996 17.5633 15.4505 18.6199C14.0688 19.7021 12.8278 20.25 11.9999 20.25C11.172 20.25 9.93093 19.7021 8.54926 18.6199C7.20021 17.5633 5.83348 16.0876 4.76394 14.4408C3.69132 12.7893 2.94812 11.0131 2.78407 9.355C2.6223 7.7199 3.02067 6.21286 4.2239 4.98582C5.23053 3.95928 6.27119 3.68987 7.23672 3.76056C8.23978 3.83398 9.21197 4.28101 9.99742 4.77925C11.1883 5.5347 12.8114 5.5347 14.0023 4.77925Z" fill="currentColor"/>
</svg>
