<svg viewBox="0 0 22 20" fill="none" xmlns="http://www.w3.org/2000/svg">
<path fill-rule="evenodd" clip-rule="evenodd" d="M19.8468 1.9356C18.5193 0.581763 17.0414 0.162939 15.6535 0.264543C14.3031 0.363399 13.087 0.949169 12.1988 1.5126C11.4984 1.95692 10.5014 1.95692 9.80091 1.5126C8.9127 0.949176 7.6966 0.363413 6.34624 0.264558C4.95834 0.162957 3.48046 0.581778 2.1529 1.9356C0.58562 3.53389 0.0939029 5.50692 0.291357 7.50268C0.486535 9.47545 1.35186 11.4809 2.50598 13.2579C3.66317 15.0396 5.14136 16.6393 6.62433 17.8008C8.07467 18.9368 9.65271 19.75 10.9999 19.75C12.3471 19.75 13.9251 18.9368 15.3754 17.8008C16.8584 16.6393 18.3366 15.0396 19.4938 13.2579C20.6479 11.4809 21.5132 9.47544 21.7084 7.50268C21.9058 5.50691 21.4141 3.53389 19.8468 1.9356ZM13.0023 2.77925C13.7877 2.281 14.7599 1.83397 15.763 1.76054C16.7285 1.68986 17.7692 1.95926 18.7758 2.98582C19.9791 4.21285 20.3774 5.7199 20.2157 7.355C20.0516 9.0131 19.3084 10.7893 18.2358 12.4408C17.1663 14.0876 15.7996 15.5633 14.4505 16.6199C13.0688 17.7021 11.8278 18.25 10.9999 18.25C10.172 18.25 8.93093 17.7021 7.54926 16.6199C6.20021 15.5633 4.83348 14.0876 3.76394 12.4408C2.69132 10.7893 1.94812 9.0131 1.78407 7.355C1.6223 5.7199 2.02067 4.21286 3.2239 2.98582C4.23053 1.95928 5.27119 1.68987 6.23672 1.76056C7.23978 1.83398 8.21197 2.28101 8.99742 2.77925C10.1883 3.5347 11.8114 3.5347 13.0023 2.77925Z" fill="currentColor"/>
</svg>
