<svg viewBox="0 0 24 24" fill="none" xmlns="http://www.w3.org/2000/svg">
<path d="M5.94 13.12C5.94 13.12 9 13 12 14C15 15 17.83 13.11 17.83 13.11" stroke="currentColor" stroke-width="1.5" stroke-linecap="round" stroke-linejoin="round"/>
<path d="M8.15998 22C3.97998 22 3.13998 19.47 4.49998 16.39L8.74998 6.74H8.44998C7.79998 6.74 7.19998 6.48 6.76998 6.05C6.32998 5.62 6.06998 5.02 6.06998 4.37C6.06998 3.07 7.12998 2 8.43998 2H15.55C16.21 2 16.8 2.27 17.23 2.7C17.79 3.26 18.07 4.08 17.86 4.95C17.59 6.03 16.55 6.74 15.44 6.74H15.28L19.5 16.4C20.85 19.48 19.97 22 15.83 22H8.15998Z" stroke="currentColor" stroke-width="1.5" stroke-linecap="round" stroke-linejoin="round"/>
</svg>
