<svg viewBox="0 0 24 24" fill="none" xmlns="http://www.w3.org/2000/svg">
<path d="M9.04438 2.5C8.60082 5.81068 9.8339 9.24313 12.5314 11.5M17 10C18.0893 15.1027 16.0127 19.5587 11.9714 21.9026M10.5 16.5C5.61878 14.4564 4.24356 8.84116 4.5575 5.32086M22 11.5C18.4 9.1 14.1667 10.5 12.5 11.5C12.8333 13.3333 12.1 17.6 6.5 20M9.78862 7.83408C11 6 17.647 4.72958 20.5 6.72958M22 12C22 17.5228 17.5228 22 12 22C6.47715 22 2 17.5228 2 12C2 6.47715 6.47715 2 12 2C17.5228 2 22 6.47715 22 12Z" stroke="currentColor" stroke-width="1.5" stroke-linejoin="round"/>
</svg>
