<svg viewBox="0 0 24 18" fill="none" xmlns="http://www.w3.org/2000/svg">
<path d="M16 6.75L20 6.75C20.4142 6.75 20.75 6.41421 20.75 6C20.75 5.58579 20.4142 5.25 20 5.25L16 5.25C15.5858 5.25 15.25 5.58579 15.25 6C15.25 6.41421 15.5858 6.75 16 6.75Z" fill="currentColor"/>
<path d="M8 11.25C7.58579 11.25 7.25 11.5858 7.25 12C7.25 12.4142 7.58579 12.75 8 12.75H16C16.4142 12.75 16.75 12.4142 16.75 12C16.75 11.5858 16.4142 11.25 16 11.25H8Z" fill="currentColor"/>
<path fill-rule="evenodd" clip-rule="evenodd" d="M18.3451 0.320612C17.4807 0.249992 16.4053 0.249995 15.0336 0.25H8.96644C7.59472 0.249995 6.51929 0.249992 5.65494 0.320612C4.77479 0.392522 4.04769 0.541379 3.38955 0.876713C2.30762 1.42798 1.42798 2.30762 0.876713 3.38955C0.541379 4.04769 0.392522 4.7748 0.320612 5.65494C0.249992 6.51929 0.249995 7.59472 0.25 8.96644V9.03356C0.249995 10.4053 0.249992 11.4807 0.320612 12.3451C0.392522 13.2252 0.541379 13.9523 0.876713 14.6104C1.42798 15.6924 2.30762 16.572 3.38955 17.1233C4.04769 17.4586 4.77479 17.6075 5.65494 17.6794C6.51927 17.75 7.59469 17.75 8.96637 17.75H15.0336C16.4053 17.75 17.4807 17.75 18.3451 17.6794C19.2252 17.6075 19.9523 17.4586 20.6104 17.1233C21.6924 16.572 22.572 15.6924 23.1233 14.6104C23.4586 13.9523 23.6075 13.2252 23.6794 12.3451C23.75 11.4807 23.75 10.4053 23.75 9.03363V8.96642C23.75 7.59473 23.75 6.51927 23.6794 5.65494C23.6075 4.77479 23.4586 4.04769 23.1233 3.38955C22.572 2.30762 21.6924 1.42798 20.6104 0.876713C19.9523 0.541379 19.2252 0.392522 18.3451 0.320612ZM4.07054 2.21322C4.48197 2.00359 4.9897 1.87996 5.77708 1.81563C6.57322 1.75058 7.58749 1.75 9 1.75H15C16.4125 1.75 17.4268 1.75058 18.2229 1.81563C19.0103 1.87996 19.518 2.00359 19.9295 2.21322C20.7291 2.62068 21.3793 3.27085 21.7868 4.07054C21.9964 4.48197 22.12 4.9897 22.1844 5.77708C22.2494 6.57322 22.25 7.58749 22.25 9C22.25 10.4125 22.2494 11.4268 22.1844 12.2229C22.12 13.0103 21.9964 13.518 21.7868 13.9295C21.3793 14.7291 20.7291 15.3793 19.9295 15.7868C19.518 15.9964 19.0103 16.12 18.2229 16.1844C17.4268 16.2494 16.4125 16.25 15 16.25H9C7.58749 16.25 6.57322 16.2494 5.77708 16.1844C4.9897 16.12 4.48197 15.9964 4.07054 15.7868C3.27085 15.3793 2.62068 14.7291 2.21322 13.9295C2.00359 13.518 1.87996 13.0103 1.81563 12.2229C1.75058 11.4268 1.75 10.4125 1.75 9C1.75 7.58749 1.75058 6.57322 1.81563 5.77708C1.87996 4.9897 2.00359 4.48197 2.21322 4.07054C2.62068 3.27085 3.27085 2.62068 4.07054 2.21322Z" fill="currentColor"/>
<path d="M6 12C6 12.5523 5.55229 13 5 13C4.44772 13 4 12.5523 4 12C4 11.4477 4.44772 11 5 11C5.55229 11 6 11.4477 6 12Z" fill="currentColor"/>
<path d="M20 12C20 12.5523 19.5523 13 19 13C18.4477 13 18 12.5523 18 12C18 11.4477 18.4477 11 19 11C19.5523 11 20 11.4477 20 12Z" fill="currentColor"/>
<path d="M10 6C10 6.55228 9.55228 7 9 7C8.44772 7 8 6.55228 8 6C8 5.44772 8.44772 5 9 5C9.55228 5 10 5.44772 10 6Z" fill="currentColor"/>
<path d="M14 6C14 6.55228 13.5523 7 13 7C12.4477 7 12 6.55228 12 6C12 5.44772 12.4477 5 13 5C13.5523 5 14 5.44772 14 6Z" fill="currentColor"/>
<path d="M6 6C6 6.55228 5.55229 7 5 7C4.44772 7 4 6.55228 4 6C4 5.44772 4.44772 5 5 5C5.55229 5 6 5.44772 6 6Z" fill="currentColor"/>
</svg>
